<?xml version="1.0" encoding="UTF-8"?>
<svg width="800" height="600" viewBox="0 0 800 600" fill="none" xmlns="http://www.w3.org/2000/svg">
    <!-- Background -->
    <rect width="800" height="600" fill="#F8F9FA"/>
    
    <!-- Calendar -->
    <g transform="translate(200, 100)">
        <!-- Calendar Header -->
        <rect x="0" y="0" width="400" height="80" fill="#2196F3" rx="10"/>
        <text x="200" y="50" font-family="Arial" font-size="24" fill="white" text-anchor="middle">Schedule Appointment</text>
        
        <!-- Calendar Grid -->
        <rect x="0" y="80" width="400" height="400" fill="white" rx="10" stroke="#E0E0E0" stroke-width="2"/>
        
        <!-- Days of Week -->
        <g font-family="Arial" font-size="14" fill="#666">
            <text x="30" y="110" text-anchor="middle">Sun</text>
            <text x="87" y="110" text-anchor="middle">Mon</text>
            <text x="144" y="110" text-anchor="middle">Tue</text>
            <text x="201" y="110" text-anchor="middle">Wed</text>
            <text x="258" y="110" text-anchor="middle">Thu</text>
            <text x="315" y="110" text-anchor="middle">Fri</text>
            <text x="372" y="110" text-anchor="middle">Sat</text>
        </g>
        
        <!-- Dates -->
        <g font-family="Arial" font-size="16">
            <!-- First Row -->
            <circle cx="30" cy="150" r="15" fill="#E3F2FD" stroke="#2196F3" stroke-width="2"/>
            <text x="30" y="155" text-anchor="middle" fill="#2196F3">1</text>
            
            <circle cx="87" cy="150" r="15" fill="#E3F2FD" stroke="#2196F3" stroke-width="2"/>
            <text x="87" y="155" text-anchor="middle" fill="#2196F3">2</text>
            
            <circle cx="144" cy="150" r="15" fill="#E3F2FD" stroke="#2196F3" stroke-width="2"/>
            <text x="144" y="155" text-anchor="middle" fill="#2196F3">3</text>
            
            <circle cx="201" cy="150" r="15" fill="#2196F3"/>
            <text x="201" y="155" text-anchor="middle" fill="white">4</text>
            
            <circle cx="258" cy="150" r="15" fill="#E3F2FD" stroke="#2196F3" stroke-width="2"/>
            <text x="258" y="155" text-anchor="middle" fill="#2196F3">5</text>
            
            <circle cx="315" cy="150" r="15" fill="#E3F2FD" stroke="#2196F3" stroke-width="2"/>
            <text x="315" y="155" text-anchor="middle" fill="#2196F3">6</text>
            
            <circle cx="372" cy="150" r="15" fill="#E3F2FD" stroke="#2196F3" stroke-width="2"/>
            <text x="372" y="155" text-anchor="middle" fill="#2196F3">7</text>
        </g>
        
        <!-- Time Slots -->
        <g transform="translate(0, 200)">
            <rect x="20" y="0" width="360" height="60" fill="#E3F2FD" rx="5"/>
            <text x="40" y="35" font-family="Arial" font-size="16" fill="#2196F3">9:00 AM</text>
            <text x="300" y="35" font-family="Arial" font-size="14" fill="#666">Available</text>
            
            <rect x="20" y="70" width="360" height="60" fill="#E3F2FD" rx="5"/>
            <text x="40" y="105" font-family="Arial" font-size="16" fill="#2196F3">10:30 AM</text>
            <text x="300" y="105" font-family="Arial" font-size="14" fill="#666">Available</text>
            
            <rect x="20" y="140" width="360" height="60" fill="#E3F2FD" rx="5"/>
            <text x="40" y="175" font-family="Arial" font-size="16" fill="#2196F3">2:00 PM</text>
            <text x="300" y="175" font-family="Arial" font-size="14" fill="#666">Available</text>
        </g>
    </g>
    
    <!-- Decorative Elements -->
    <circle cx="600" cy="150" r="30" fill="#64B5F6" opacity="0.3"/>
    <circle cx="650" cy="200" r="20" fill="#64B5F6" opacity="0.3"/>
    <circle cx="550" cy="250" r="25" fill="#64B5F6" opacity="0.3"/>
    
    <!-- Contact Icons -->
    <g transform="translate(600, 350)">
        <!-- Phone -->
        <circle cx="0" cy="0" r="40" fill="white" stroke="#2196F3" stroke-width="2"/>
        <path d="M-15 -10 L15 -10 L15 10 L-15 10 Z" stroke="#2196F3" stroke-width="2" fill="none"/>
        <path d="M0 10 L0 20" stroke="#2196F3" stroke-width="2"/>
        
        <!-- Email -->
        <circle cx="100" cy="0" r="40" fill="white" stroke="#2196F3" stroke-width="2"/>
        <path d="M70 -10 L130 -10 L130 10 L70 10 Z" stroke="#2196F3" stroke-width="2" fill="none"/>
        <path d="M70 -10 L100 10 L130 -10" stroke="#2196F3" stroke-width="2" fill="none"/>
        
        <!-- Chat -->
        <circle cx="200" cy="0" r="40" fill="white" stroke="#2196F3" stroke-width="2"/>
        <path d="M160 -10 L240 -10 L240 10 L160 10 Z" stroke="#2196F3" stroke-width="2" fill="none"/>
        <path d="M180 0 L220 0" stroke="#2196F3" stroke-width="2"/>
    </g>
</svg> 