<?xml version="1.0" encoding="UTF-8"?>
<svg width="600" height="400" viewBox="0 0 600 400" fill="none" xmlns="http://www.w3.org/2000/svg">
    <!-- Doctor figure -->
    <path d="M300 100C322.091 100 340 82.0914 340 60C340 37.9086 322.091 20 300 20C277.909 20 260 37.9086 260 60C260 82.0914 277.909 100 300 100Z" fill="#4A90E2"/>
    <path d="M260 120H340V200C340 222.091 322.091 240 300 240C277.909 240 260 222.091 260 200V120Z" fill="#4A90E2"/>
    <!-- Stethoscope -->
    <path d="M320 140C320 140 340 160 340 180C340 200 320 220 300 220C280 220 260 200 260 180C260 160 280 140 280 140" stroke="#2C3E50" stroke-width="4"/>
    <!-- Medical cross -->
    <path d="M290 80H310V100H290V80Z" fill="#FFFFFF"/>
    <path d="M280 90H320V110H280V90Z" fill="#FFFFFF"/>
    
    <!-- Patient figure -->
    <path d="M200 200c-22.1 0-40 17.9-40 40s17.9 40 40 40 40-17.9 40-40-17.9-40-40-40z" fill="#E74C3C"/>
    <path d="M180 220h40v20h-40z" fill="#2C3E50"/>
    
    <!-- Medical equipment -->
    <path d="M400 180l20-20 20 20-20 20z" fill="#95A5A6"/>
    <circle cx="420" cy="180" r="5" fill="#3498DB"/>
    
    <!-- Decorative elements -->
    <circle cx="100" cy="100" r="20" fill="#3498DB" opacity="0.2"/>
    <circle cx="500" cy="300" r="30" fill="#E74C3C" opacity="0.2"/>
    <path d="M50 250c20-20 40-20 60 0" stroke="#95A5A6" stroke-width="2" opacity="0.3"/>
</svg> 