<?xml version="1.0" encoding="UTF-8"?>
<svg width="800" height="600" viewBox="0 0 800 600" fill="none" xmlns="http://www.w3.org/2000/svg">
    <!-- Background -->
    <rect width="800" height="600" fill="#F8F9FA"/>
    
    <!-- Calendar -->
    <g transform="translate(200,100)">
        <rect x="0" y="0" width="400" height="400" rx="10" fill="white" stroke="#2196F3" stroke-width="2"/>
        
        <!-- Calendar Header -->
        <rect x="0" y="0" width="400" height="60" rx="10" fill="#2196F3"/>
        <text x="200" y="35" font-family="Arial" font-size="24" fill="white" text-anchor="middle">Schedule Appointment</text>
        
        <!-- Calendar Grid -->
        <g transform="translate(20,80)">
            <!-- Days -->
            <text x="0" y="0" font-family="Arial" font-size="16" fill="#666">Sun</text>
            <text x="60" y="0" font-family="Arial" font-size="16" fill="#666">Mon</text>
            <text x="120" y="0" font-family="Arial" font-size="16" fill="#666">Tue</text>
            <text x="180" y="0" font-family="Arial" font-size="16" fill="#666">Wed</text>
            <text x="240" y="0" font-family="Arial" font-size="16" fill="#666">Thu</text>
            <text x="300" y="0" font-family="Arial" font-size="16" fill="#666">Fri</text>
            <text x="360" y="0" font-family="Arial" font-size="16" fill="#666">Sat</text>
            
            <!-- Dates -->
            <g transform="translate(0,40)">
                <!-- Week 1 -->
                <circle cx="30" cy="30" r="20" fill="#E3F2FD"/>
                <text x="30" y="35" font-family="Arial" font-size="14" fill="#2196F3" text-anchor="middle">1</text>
                
                <circle cx="90" cy="30" r="20" fill="#E3F2FD"/>
                <text x="90" y="35" font-family="Arial" font-size="14" fill="#2196F3" text-anchor="middle">2</text>
                
                <circle cx="150" cy="30" r="20" fill="#E3F2FD"/>
                <text x="150" y="35" font-family="Arial" font-size="14" fill="#2196F3" text-anchor="middle">3</text>
                
                <circle cx="210" cy="30" r="20" fill="#2196F3"/>
                <text x="210" y="35" font-family="Arial" font-size="14" fill="white" text-anchor="middle">4</text>
                
                <circle cx="270" cy="30" r="20" fill="#E3F2FD"/>
                <text x="270" y="35" font-family="Arial" font-size="14" fill="#2196F3" text-anchor="middle">5</text>
                
                <circle cx="330" cy="30" r="20" fill="#E3F2FD"/>
                <text x="330" y="35" font-family="Arial" font-size="14" fill="#2196F3" text-anchor="middle">6</text>
                
                <!-- Week 2 -->
                <circle cx="30" cy="90" r="20" fill="#E3F2FD"/>
                <text x="30" y="95" font-family="Arial" font-size="14" fill="#2196F3" text-anchor="middle">7</text>
                
                <circle cx="90" cy="90" r="20" fill="#E3F2FD"/>
                <text x="90" y="95" font-family="Arial" font-size="14" fill="#2196F3" text-anchor="middle">8</text>
                
                <circle cx="150" cy="90" r="20" fill="#E3F2FD"/>
                <text x="150" y="95" font-family="Arial" font-size="14" fill="#2196F3" text-anchor="middle">9</text>
                
                <circle cx="210" cy="90" r="20" fill="#E3F2FD"/>
                <text x="210" y="95" font-family="Arial" font-size="14" fill="#2196F3" text-anchor="middle">10</text>
                
                <circle cx="270" cy="90" r="20" fill="#E3F2FD"/>
                <text x="270" y="95" font-family="Arial" font-size="14" fill="#2196F3" text-anchor="middle">11</text>
                
                <circle cx="330" cy="90" r="20" fill="#E3F2FD"/>
                <text x="330" y="95" font-family="Arial" font-size="14" fill="#2196F3" text-anchor="middle">12</text>
            </g>
        </g>
        
        <!-- Time Slots -->
        <g transform="translate(20,300)">
            <text x="0" y="0" font-family="Arial" font-size="16" fill="#666">Available Time Slots:</text>
            <g transform="translate(0,30)">
                <rect x="0" y="0" width="100" height="30" rx="5" fill="#E3F2FD"/>
                <text x="50" y="20" font-family="Arial" font-size="14" fill="#2196F3" text-anchor="middle">9:00 AM</text>
                
                <rect x="120" y="0" width="100" height="30" rx="5" fill="#E3F2FD"/>
                <text x="170" y="20" font-family="Arial" font-size="14" fill="#2196F3" text-anchor="middle">10:30 AM</text>
                
                <rect x="240" y="0" width="100" height="30" rx="5" fill="#E3F2FD"/>
                <text x="290" y="20" font-family="Arial" font-size="14" fill="#2196F3" text-anchor="middle">2:00 PM</text>
            </g>
        </g>
    </g>
    
    <!-- Decorative Elements -->
    <circle cx="400" cy="300" r="250" fill="#E3F2FD" opacity="0.1"/>
    <circle cx="400" cy="300" r="200" fill="#BBDEFB" opacity="0.1"/>
    
    <!-- Contact Icons -->
    <g transform="translate(650,100)">
        <circle cx="0" cy="0" r="30" fill="#4CAF50"/>
        <text x="0" y="5" font-family="Arial" font-size="20" fill="white" text-anchor="middle">📞</text>
        
        <circle cx="0" cy="80" r="30" fill="#FF9800"/>
        <text x="0" y="85" font-family="Arial" font-size="20" fill="white" text-anchor="middle">✉️</text>
        
        <circle cx="0" cy="160" r="30" fill="#9C27B0"/>
        <text x="0" y="165" font-family="Arial" font-size="20" fill="white" text-anchor="middle">💬</text>
    </g>
</svg> 